HIERARCHY
ROOT Hips
{
  OFFSET 279.157 85.6768 304.565
  CHANNELS 6 Xposition Yposition Zposition Zrotation Xrotation Yrotation
  JOINT LeftUpLeg
  {
    OFFSET 8.64259 1.95398 -2.38835
    CHANNELS 3 Zrotation Xrotation Yrotation
    JOINT LeftLeg
    {
      OFFSET 43.7702 0 0
      CHANNELS 3 Zrotation Xrotation Yrotation
      JOINT LeftFoot
      {
        OFFSET 40.6238 0 0
        CHANNELS 3 Zrotation Xrotation Yrotation
        JOINT LeftToeBase
        {
          OFFSET 12.7242 0 0
          CHANNELS 3 Zrotation Xrotation Yrotation
          End Site
          {
            OFFSET 0 0 0
          }
        }
      }
    }
  }
  JOINT RightUpLeg
  {
    OFFSET -8.2249 1.95398 -2.59336
    CHANNELS 3 Zrotation Xrotation Yrotation
    JOINT RightLeg
    {
      OFFSET 43.5653 0 0
      CHANNELS 3 Zrotation Xrotation Yrotation
      JOINT RightFoot
      {
        OFFSET 40.6238 0 0
        CHANNELS 3 Zrotation Xrotation Yrotation
        JOINT RightToeBase
        {
          OFFSET 12.7242 0 0
          CHANNELS 3 Zrotation Xrotation Yrotation
          End Site
          {
            OFFSET 0 0 0
          }
        }
      }
    }
  }
  JOINT Spine
  {
    OFFSET 0.165834 0.87714 6.61349
    CHANNELS 3 Zrotation Xrotation Yrotation
    JOINT Spine1
    {
      OFFSET 7.38963 1.71661e-005 0
      CHANNELS 3 Zrotation Xrotation Yrotation
      JOINT Spine2
      {
        OFFSET 11.9445 1.14441e-005 0
        CHANNELS 3 Zrotation Xrotation Yrotation
        JOINT Spine3
        {
          OFFSET 14.7254 4.19617e-005 0
          CHANNELS 3 Zrotation Xrotation Yrotation
          JOINT Spine4
          {
            OFFSET 10.9679 0 0
            CHANNELS 3 Zrotation Xrotation Yrotation
            JOINT RightShoulder
            {
              OFFSET 2.46616 -1.6653 3.69651
              CHANNELS 3 Zrotation Xrotation Yrotation
              JOINT RightArm
              {
                OFFSET 13.0012 0 0
                CHANNELS 3 Zrotation Xrotation Yrotation
                JOINT RightForeArm
                {
                  OFFSET 28.7848 1.52588e-005 0
                  CHANNELS 3 Zrotation Xrotation Yrotation
                  JOINT RightHand
                  {
                    OFFSET 26.5688 1.52588e-005 0
                    CHANNELS 3 Zrotation Xrotation Yrotation
                    End Site
                    {
                      OFFSET 0 0 0
                    }
                  }
                }
              }
            }
            JOINT LeftShoulder
            {
              OFFSET 2.38034 -1.29275 -3.7523
              CHANNELS 3 Zrotation Xrotation Yrotation
              JOINT LeftArm
              {
                OFFSET 16.3182 6.10351e-005 0
                CHANNELS 3 Zrotation Xrotation Yrotation
                JOINT LeftForeArm
                {
                  OFFSET 27.0901 0 0
                  CHANNELS 3 Zrotation Xrotation Yrotation
                  JOINT LeftHand
                  {
                    OFFSET 24.5451 1.52588e-005 0
                    CHANNELS 3 Zrotation Xrotation Yrotation
                    End Site
                    {
                      OFFSET 0 0 0
                    }
                  }
                }
              }
            }
            JOINT Neck
            {
              OFFSET 5.0226 -0.0266342 0
              CHANNELS 3 Zrotation Xrotation Yrotation
              JOINT Head
              {
                OFFSET 6.69364 2.86102e-005 0
                CHANNELS 3 Zrotation Xrotation Yrotation
                End Site
                {
                  OFFSET 0 0 0
                }
              }
            }
          }
        }
      }
    }
  }
}
MOTION
Frames:	7
Frame Time:	0.0416667
-220.502 73.0659 -220.736 -17.3523 -53.1038 -18.3633 -64.5333 58.7955 11.5844 -83.4906 19.1384 -15.6595 81.9121 18.7885 10.7357 18.2858 -1.22135 -13.4935 -175.287 55.9219 66.1728 -74.3143 -2.14838 -5.53763 97.0436 -18.5955 10.1411 50.6281 -8.47037 -12.357 0.266682 11.7276 -90.9288 3.41613 0.16303 -1.81678 -8.25613 0.0829335 -1.82221 -30.7821 0.701424 -1.68388 -10.7694 0.701432 -1.68386 81.8746 -22.9281 -127.038 -16.048 13.8955 -36.9265 4.42597 -38.5711 -7.17784 -39.6985 -5.86157 6.1432 -98.0675 -31.31 59.0089 3.68765 -16.9448 -65.7054 5.26928 30.6506 -1.2322 11.6599 0.493413 0.583263 46.6023 -1.0893 -0.0962241 -5.88057 -1.10107 3.18097 
-227.209 70.8456 -224.667 -7.59019 -52.0087 -11.054 -57.1874 55.711 1.76099 -85.2458 11.2971 -15.0812 82.1416 17.5703 9.31493 19.0318 -3.02757 -6.84105 -168.281 63.8262 63.2571 -87.4164 0.362997 -5.38544 95.956 -19.4121 7.14233 54.8795 -10.5061 -12.9365 0.448253 11.9337 -90.9443 3.0068 0.522782 -1.84149 -8.66537 0.441243 -1.86271 -31.193 1.05199 -1.59935 -11.1804 1.05199 -1.59936 80.8578 -22.0683 -129.759 -17.7282 21.9846 -29.942 1.53668 -31.0138 -10.2395 -49.9841 -6.56697 6.02951 -101.412 -36.4337 55.9347 3.56222 -20.0085 -63.9855 11.4001 34.4762 -10.5734 16.7054 0.764507 0.612905 46.3463 2.00881 5.99501 -2.1762 -1.4064 2.11389 
-233.204 68.8147 -226.497 2.41471 -51.2788 -4.69122 -53.5676 54.086 -2.66978 -84.6791 15.1002 -14.3266 78.4981 14.1546 6.95943 17.966 -2.24815 -10.7145 -159.726 67.3768 57.2575 -97.2006 -0.944786 -5.48983 94.5915 -21.6479 1.84204 58.6178 -12.3185 -13.2533 0.443704 12.2117 -90.8605 2.45121 0.550637 -1.67091 -9.22073 0.476576 -1.69352 -31.7501 1.0273 -1.42824 -11.7375 1.02731 -1.42824 81.3632 -22.3277 -128.531 -18.265 24.9111 -26.5362 0.423028 -23.7851 -11.2968 -45.3793 -3.38572 0.126931 -103.509 -37.841 53.28 8.98244 -20.2736 -61.2927 10.9337 25.6242 -14.3506 20.8311 0.702008 -0.51093 42.4807 3.18853 11.9997 3.59637 -3.08268 0.0599579 
-238.21 66.9878 -226.274 7.57871 -49.2014 -1.29652 -49.198 51.3548 -3.20761 -83.856 21.4351 -15.7656 76.3879 12.9996 7.20471 15.1691 -3.74433 -9.85107 -156.674 70.9967 58.5025 -102.389 7.88428 -4.88999 93.4805 -21.826 0.70435 60.9291 -13.473 -13.5263 0.836768 12.4862 -90.8141 1.9073 1.35713 -1.55629 -9.76393 1.28734 -1.6145 -32.3008 1.76209 -1.07647 -12.2881 1.76209 -1.07647 82.8454 -23.6409 -124.571 -13.2535 30.0201 -26.1589 -2.75184 -11.8228 -16.5345 -66.5143 -7.31824 5.50039 -104.204 -34.5306 50.3132 7.94444 -23.0941 -59.5545 17.1635 26.2227 -24.1512 23.7368 0.237435 -2.95154 41.2469 2.68847 14.7266 7.49457 -4.58653 1.66435 
-241.269 65.8504 -225.126 12.1978 -48.1209 3.96187 -46.2882 51.0407 -4.51355 -83.5138 26.3327 -16.5806 74.2178 11.4846 7.47716 18.5175 -4.05816 -4.48484 -165.127 72.6958 68.2147 -105.25 8.59045 -4.22794 90.553 -22.8145 -3.24962 62.9289 -14.6775 -14.6469 1.02111 12.9525 -91.038 0.977791 1.64636 -1.9639 -10.6937 1.55835 -2.03445 -33.2307 2.16041 -1.37835 -13.218 2.16042 -1.37835 83.7461 -27.0642 -120.581 -8.64609 39.4017 -26.7877 -11.2191 -23.7228 -30.7768 -58.9677 -6.36087 4.09931 -102.013 -27.7166 49.901 6.5319 -26.5993 -55.9587 19.7179 20.4855 -30.4694 26.7277 0.0748456 -3.73543 34.4041 0.219326 7.76665 14.6741 -1.66193 9.7811 
-242.29 65.9981 -223.625 14.7223 -49.2765 8.6296 -46.3094 53.042 -3.93843 -83.6713 28.2683 -16.3273 74.1619 11.5348 7.73446 17.7192 -3.91755 -6.07687 -177.36 69.9293 79.7502 -104.779 7.26706 -3.79449 90.4833 -22.8996 -3.46277 64.9082 -15.2056 -12.8032 1.39585 13.4514 -91.2178 -0.0148948 2.33406 -2.25193 -11.6859 2.23271 -2.35247 -34.2302 2.90284 -1.44622 -14.2175 2.90284 -1.44622 85.0543 -27.349 -117.822 -10.2447 38.3332 -25.0595 -5.78843 -11.7596 -28.2735 -70.5632 -4.53024 0.650898 -99.1051 -21.9202 51.4729 3.99218 -27.8154 -57.7467 20.5172 19.7977 -31.4261 28.1713 0.458589 -2.37714 31.3456 -1.02172 -0.518206 15.7344 1.92378 16.076 
-241.57 67.6433 -221.861 16.1337 -51.0002 12.8384 -48.8325 57.2623 -3.71608 -84.2743 25.9832 -14.4308 75.7759 12.0403 6.48003 12.3862 -4.01493 -12.5017 176.651 63.7533 85.339 -100.245 3.55882 -3.57685 90.1559 -23.3637 -5.10435 65.349 -15.1299 -11.6259 1.80365 13.7162 -91.3881 -0.537452 3.08893 -2.52318 -12.2074 2.97494 -2.65667 -34.7638 3.70426 -1.4776 -14.7511 3.70426 -1.47761 84.9556 -26.8114 -118.322 -11.7597 35.9153 -22.8665 -3.61563 -5.72241 -23.104 -69.8058 -6.13354 3.48408 -96.6644 -18.2638 53.8711 3.20347 -25.5953 -62.9093 19.0628 22.2317 -27.7151 27.0053 0.961586 -0.357847 35.0215 0.122073 0.93304 11.3106 1.65531 15.6964 
